<svg xmlns="http://www.w3.org/2000/svg" width="26" height="12" viewBox="0 0 26 12" fill="none">
  <path d="M25.2157 5.31528C25.2157 5.31528 25.2153 5.3148 25.2148 5.31431L20.158 0.281754C19.7791 -0.0952044 19.1665 -0.0937527 18.7891 0.285141C18.4121 0.664035 18.4136 1.27665 18.7925 1.65361L22.1875 5.0322H1.69192C1.15721 5.0322 0.724121 5.46529 0.724121 6C0.724121 6.53471 1.15721 6.9678 1.69192 6.9678H22.188L18.7929 10.3464C18.4141 10.7233 18.4126 11.336 18.7896 11.7149C19.1665 12.0938 19.7796 12.0952 20.1585 11.7182L25.2153 6.68569C25.2153 6.68569 25.2158 6.6852 25.2162 6.68472C25.5951 6.30631 25.5942 5.69176 25.2162 5.3148L25.2157 5.31528Z" fill="#020122"/>
</svg>